<svg width="41" height="40" viewBox="0 0 41 40" fill="none" xmlns="http://www.w3.org/2000/svg">
<g clip-path="url(#clip0_2_206)">
<path d="M40.0124 20C40.0124 8.95431 31.0581 1.52588e-05 20.0124 1.52588e-05C8.96666 1.52588e-05 0.0123596 8.95431 0.0123596 20C0.0123596 29.9826 7.32607 38.2567 16.8874 39.757V25.7813H11.8092V20H16.8874V15.5938C16.8874 10.5813 19.8732 7.81252 24.4417 7.81252C26.6298 7.81252 28.9186 8.20314 28.9186 8.20314V13.125H26.3967C23.9122 13.125 23.1374 14.6667 23.1374 16.2483V20H28.6842L27.7975 25.7813H23.1374V39.757C32.6986 38.2567 40.0124 29.9826 40.0124 20Z" fill="#100F0D"/>
<path d="M27.7975 25.7812L28.6842 20H23.1374V16.2483C23.1374 14.6667 23.9122 13.125 26.3967 13.125H28.9186V8.20312C28.9186 8.20312 26.6298 7.8125 24.4417 7.8125C19.8732 7.8125 16.8874 10.5812 16.8874 15.5938V20H11.8092V25.7812H16.8874V39.757C17.9056 39.9168 18.9492 40 20.0124 40C21.0755 40 22.1191 39.9168 23.1374 39.757V25.7812H27.7975Z" fill="white"/>
</g>
<defs>
<clipPath id="clip0_2_206">
<rect width="40" height="40" fill="white" transform="translate(0.0123596)"/>
</clipPath>
</defs>
</svg>
