<svg width="42" height="40" viewBox="0 0 42 40" fill="none" xmlns="http://www.w3.org/2000/svg">
<path d="M20.5063 0C9.18249 0 0 9.18079 0 20.5063C0 29.5666 5.87569 37.2532 14.0235 39.9648C15.0483 40.1546 15.4246 39.5199 15.4246 38.9783C15.4246 38.4893 15.4056 36.8739 15.3967 35.1604C9.69185 36.4009 8.48805 32.7409 8.48805 32.7409C7.55524 30.3707 6.21119 29.7404 6.21119 29.7404C4.35065 28.4677 6.35144 28.4939 6.35144 28.4939C8.41063 28.6385 9.4949 30.607 9.4949 30.607C11.3239 33.742 14.2921 32.8357 15.4623 32.3117C15.6463 30.9864 16.1778 30.0817 16.7642 29.5696C12.2095 29.0511 7.42144 27.2928 7.42144 19.4353C7.42144 17.1965 8.22251 15.3672 9.53429 13.9311C9.32137 13.4146 8.61947 11.3289 9.73294 8.50435C9.73294 8.50435 11.4549 7.95322 15.3736 10.6063C17.0094 10.152 18.7636 9.92412 20.5063 9.91631C22.2491 9.92412 24.0047 10.152 25.6435 10.6063C29.5574 7.95322 31.277 8.50435 31.277 8.50435C32.3932 11.3289 31.691 13.4146 31.4781 13.9311C32.7929 15.3672 33.5885 17.1965 33.5885 19.4353C33.5885 27.3115 28.7913 29.0457 24.225 29.5533C24.9606 30.1897 25.616 31.4376 25.616 33.3508C25.616 36.0946 25.5922 38.3029 25.5922 38.9783C25.5922 39.524 25.9613 40.1634 27.0007 39.962C35.1441 37.2475 41.0124 29.5635 41.0124 20.5063C41.0124 9.18079 31.8312 0 20.5063 0ZM7.68029 29.2117C7.63513 29.3136 7.47485 29.3442 7.32883 29.2742C7.1801 29.2073 7.09656 29.0684 7.14478 28.9662C7.18893 28.8613 7.34955 28.8321 7.49794 28.9024C7.64702 28.9693 7.73191 29.1095 7.68029 29.2117ZM8.68898 30.1118C8.59118 30.2024 8.4 30.1603 8.27028 30.017C8.13615 29.8741 8.11102 29.6829 8.21018 29.5908C8.31103 29.5002 8.49644 29.5426 8.63091 29.6856C8.76504 29.8302 8.79119 30.0201 8.68898 30.1118ZM9.38097 31.2633C9.25533 31.3506 9.04989 31.2688 8.92288 31.0864C8.79724 30.904 8.79724 30.6854 8.9256 30.5978C9.05294 30.5101 9.25533 30.5889 9.38403 30.7699C9.50933 30.9553 9.50933 31.174 9.38097 31.2633ZM10.5513 32.597C10.4389 32.7209 10.1995 32.6877 10.0243 32.5186C9.84497 32.3532 9.79505 32.1185 9.90779 31.9946C10.0215 31.8703 10.2623 31.9053 10.4389 32.073C10.6168 32.2381 10.6712 32.4744 10.5513 32.597ZM12.0638 33.0472C12.0142 33.2078 11.7837 33.2809 11.5514 33.2126C11.3195 33.1423 11.1677 32.9542 11.2145 32.7919C11.2627 32.6302 11.4943 32.5542 11.7283 32.6272C11.9599 32.6971 12.112 32.8839 12.0638 33.0472ZM13.7851 33.2382C13.7909 33.4073 13.5939 33.5476 13.3501 33.5506C13.1049 33.556 12.9066 33.4192 12.9039 33.2528C12.9039 33.082 13.0964 32.9431 13.3416 32.939C13.5854 32.9343 13.7851 33.0701 13.7851 33.2382ZM15.4761 33.1734C15.5053 33.3384 15.3359 33.5079 15.0937 33.553C14.8557 33.5965 14.6353 33.4946 14.6051 33.3309C14.5755 33.1618 14.748 32.9924 14.9858 32.9486C15.2282 32.9065 15.4452 33.0056 15.4761 33.1734Z" fill="#161614"/>
</svg>
