<svg width="45" height="34" viewBox="0 0 45 34" fill="none" xmlns="http://www.w3.org/2000/svg">
<path d="M3.01652 33.495H10.0263V16.5453L0.0123291 9.01212V30.4935C0.0123291 32.1414 1.36716 33.495 3.01652 33.495Z" fill="#3C3C3C"/>
<path d="M34.001 33.495H41.0108C42.6601 33.495 44.015 32.1414 44.015 30.4935V9.01212L34.001 16.4865" fill="#252525"/>
<path d="M34.001 3.53875V16.5453L44.015 9.07095V5.01008C44.015 1.30233 39.7737 -0.816385 36.8285 1.42004" fill="#494949"/>
<path d="M10.0263 16.5453V3.53873L22.0431 12.5433L34.0009 3.53873V16.5453L21.9842 25.491" fill="#6D6D6D"/>
<path d="M0.0123291 5.01005V9.01207L10.0263 16.4864V3.53872L7.19883 1.42001C4.25354 -0.757558 0.0123291 1.36116 0.0123291 5.01005Z" fill="#202020"/>
</svg>
