<svg width="49" height="34" viewBox="0 0 49 34" fill="none" xmlns="http://www.w3.org/2000/svg">
<path d="M47.0093 5.41164C46.4573 3.34005 44.831 1.70876 42.7656 1.15512C39.0224 0.148945 24.0124 0.148945 24.0124 0.148945C24.0124 0.148945 9.00235 0.148945 5.25906 1.15512C3.19389 1.70876 1.56733 3.34005 1.01538 5.41164C0.0123596 9.16625 0.0123596 17 0.0123596 17C0.0123596 17 0.0123596 24.8337 1.01538 28.5886C1.56733 30.66 3.19389 32.2912 5.25906 32.8451C9.00235 33.8511 24.0124 33.8511 24.0124 33.8511C24.0124 33.8511 39.0224 33.8511 42.7656 32.8451C44.831 32.2912 46.4573 30.66 47.0093 28.5886C48.0124 24.8337 48.0124 17 48.0124 17C48.0124 17 48.0124 9.16625 47.0093 5.41164Z" fill="#252323"/>
<path d="M19.1033 24.1125L31.6487 17.0004L19.1033 9.88758V24.1125Z" fill="white"/>
</svg>
